<?xml version="1.0" encoding="UTF-8" standalone="no"?>
<!-- Created with Inkscape (http://www.inkscape.org/) -->

<svg
   version="1.1"
   id="svg2"
   width="1821.3333"
   height="1024"
   viewBox="0 0 1821.3333 1024"
   >    
  <g
     id="g8"
     transform="matrix(1.3333333,0,0,-1.3333333,0,1024)">
    <g
       id="g10">
      <g
         id="g12">
        <g
           id="g18">
          <g
             id="g20">
            <path stroke="#FFE81F" stroke-width="5"
               d="m 856.507,384.681 h 62.831 v -93.162 h -62.831 z"               
               id="path28" />
          </g>
        </g>
      </g>
    </g>
    <g
       id="g30">
      <g
         id="g32">
        <g
           id="g38">
          <g
             id="g40">
            <path stroke="#FFE81F" stroke-width="5" 
               d="m 856.508,291.549 v 94.193 c -0.195,10.721 -0.444,98.602 -0.444,98.602 v 0 C 738.379,471.914 743.797,296.479 856.508,291.549"               
               id="path48" />
          </g>
        </g>
      </g>
    </g>
    <g
       id="g50">
      <g
         id="g52">
        <g
           id="g58">
          <g
             id="g60">
            <path stroke="#FFE81F"  stroke-width="5"
               d="M 599.66,289.196 H 736.154 L 665.839,398.608 Z"
               
               id="path68" />
          </g>
        </g>
      </g>
    </g>
    <g
       id="g70">
      <g
         id="g72">
        <g
           id="g78">
          <g
             id="g80">
            <path
               stroke="#FFE81F"  stroke-width="5"
               d="m 617.138,474.417 95.835,-148.98 c 76.413,54.87 25.489,161.91 -50.244,161.916 v 0 c -14.527,10e-4 -29.961,-3.936 -45.591,-12.936"               
               id="path88" />
          </g>
        </g>
      </g>
    </g>
    <g
       id="g90">
      <g
         id="g92">
        <g
           id="g98">
          <g
             id="g100">
            <path
               stroke="#FFE81F"  stroke-width="5"
               d="m 446.662,353.359 c 0,-40.317 32.683,-73 73,-73 v 0 c 40.317,0 73.001,32.683 73.001,73 v 0 c 0,40.316 -32.684,73 -73.001,73 v 0 c -40.317,0 -73,-32.684 -73,-73"               
               id="path108" />
          </g>
        </g>
      </g>
    </g>
    <g
       id="g110">
      <g
         id="g112">
        <g
           id="g118">
          <g
             id="g120">
            <path
               stroke="#FFE81F"  stroke-width="5"
               d="m 447.691,487.483 -0.989,-134.212 74.806,0.668 v 72.342 l 66.445,-0.51 0.479,61.871 z"              
               id="path128" />
          </g>
        </g>
      </g>
    </g>
  </g>
</svg>
